<svg width="122" height="26" viewBox="0 0 122 26" fill="none" xmlns="http://www.w3.org/2000/svg">
<g clip-path="url(#clip0_1_266)">
<path d="M35.6421 0.5V25.5H61H122V13V0.5H61H35.6421Z" fill="black"/>
<path d="M0 0.5V25.5H35.6421V0.5H0Z" fill="#474747"/>
<path d="M28.4771 23.1523C29.8416 22.8596 31.0738 22.2068 31.9509 21.3119C32.6402 20.6086 33.1728 19.3205 33.2278 19.1814L29.605 17.1166L29.1455 17.8209C28.5912 18.6703 27.9084 19.2124 26.7023 19.4248C24.7613 19.7665 23.2073 19.1189 22.4998 17.6735C21.6263 15.8887 21.6103 10.5452 22.473 8.6617C23.0632 7.37297 24.1608 6.75247 25.8501 6.75247C27.432 6.75247 28.5739 7.34019 29.1375 8.44443L29.4482 9.05335L30.0129 8.71163C30.8785 8.18783 31.1025 8.05626 32.293 7.37251L33.3984 6.73762L33.0795 6.11279C32.6303 5.23278 31.5092 4.08193 30.5934 3.56083C28.319 2.26669 24.119 2.1533 21.5534 3.31678C20.608 3.74552 19.4825 4.74245 18.8813 5.6837C17.8249 7.33769 17.2873 10.4157 17.4301 13.9916C17.5659 17.3909 18.1124 19.3476 19.3488 20.8616C20.7599 22.5897 22.7146 23.3476 25.7739 23.3529C26.7384 23.3545 27.9549 23.2643 28.4771 23.1523Z" fill="#F5F5F5"/>
<path d="M48.8524 23.1406C51.779 22.5208 53.5014 20.8269 54.309 17.7743C54.5409 16.8975 54.6461 15.9092 54.7076 14.0298L54.791 11.4764H45.2839V14.8169H50.3263C50.3495 15.7885 50.113 16.7518 49.757 17.6502C48.9527 19.2685 46.9827 19.95 44.898 19.3312C43.6465 18.9597 42.8826 17.9596 42.5466 16.2526C42.2786 14.8905 42.4194 9.94318 42.7512 9.06543C43.3631 7.44692 44.4348 6.75483 46.3331 6.75229C48.055 6.75 49.0493 7.49064 49.7609 8.52194L50.0114 8.88495L53.8256 6.72444L53.4556 5.99462C52.6677 4.44035 50.9277 3.21533 48.8776 2.77156C47.5962 2.49419 44.842 2.53141 43.5548 2.8435C40.7476 3.52407 39.0119 5.41469 38.3108 8.55538C37.9321 10.2518 37.9381 15.8018 38.3204 17.4281C39.0724 20.6279 40.8682 22.4976 43.8007 23.1342C45.0764 23.4111 47.5604 23.4142 48.8524 23.1406Z" fill="#F5F5F5"/>
<path d="M2.28751 2.78662V23.1372H6.55751V16.5061H8.80688C11.2355 16.5033 12.6751 16.2793 13.7155 15.7487C15.1273 15.0287 16.0797 13.7695 16.5463 11.9997C16.8256 10.9399 16.8739 8.23594 16.632 7.16448C16.1209 4.89955 14.53 3.37867 12.2191 2.94382C11.7673 2.85881 9.34825 2.78662 6.84344 2.78662H2.28751ZM6.55751 6.56901H9.44547C10.6329 6.56901 11.1618 6.70894 11.5423 6.98822C12.2613 7.51588 12.505 8.19136 12.505 9.64638C12.505 11.1014 12.2613 11.7769 11.5423 12.3045C11.1618 12.5838 10.3822 12.7237 9.44547 12.7237H6.55751V6.56901Z" fill="#F5F5F5"/>
<path d="M59.8848 2.78662L53.7372 23.1372H57.9214L58.7887 20.0122H65.5178L66.4137 23.1372H70.7886L64.5456 2.78662H59.8848ZM62.2534 8.79367L62.2677 8.81273L64.355 16.025L59.9373 16.0107L62.2534 8.79367Z" fill="#F5F5F5"/>
<path d="M75.469 10.6518L79.4689 23.138H82.2697L86.2401 10.3459L86.3197 23.138H90.4339V2.78735H84.9897L81.0147 15.6459L77.0926 2.78735H71.5239L71.63 23.138H75.342L75.469 10.6518Z" fill="#F5F5F5"/>
<path d="M104.311 19.2508H95.9239V14.6776H103.854V10.7142H95.9239V6.75077H104.311V2.78735H91.6539L91.7555 23.138H104.311V19.2508Z" fill="#F5F5F5"/>
<path d="M105.382 2.78662L105.368 23.1372H109.571L109.657 16.3442H112.25L115.118 23.1372H119.56L116.52 15.8059C119.468 13.7605 119.755 11.8509 119.693 8.19821C119.519 5.98759 118.678 4.48842 117.144 3.65362C115.789 2.91676 114.754 2.78954 109.843 2.78662H105.382ZM109.648 6.5976H112.91C114.305 6.5976 114.729 6.76629 115.214 7.74089C115.643 8.60361 115.638 10.7348 115.204 11.4852C114.69 12.3753 114.188 12.5427 112.91 12.5427H109.648V6.5976Z" fill="#F5F5F5"/>
<path d="M119.561 3.85445C119.929 3.48687 119.941 3.34072 119.627 3.02693C119.158 2.55814 118.494 2.83319 118.494 3.49627C118.494 3.80168 118.829 4.14201 119.142 4.1547C119.205 4.15725 119.394 4.02214 119.561 3.85445Z" fill="black"/>
<path d="M118.656 3.53011C118.643 3.20028 119.042 2.88346 119.33 2.99418C119.457 3.04285 119.552 3.23917 119.543 3.43045C119.529 3.69158 119.508 3.7113 119.455 3.50958C119.417 3.36183 119.311 3.28669 119.221 3.34259C119.123 3.40301 119.1 3.37287 119.165 3.26823C119.225 3.17144 119.199 3.09224 119.107 3.09224C119.016 3.09224 118.879 3.24658 118.803 3.43523C118.71 3.66733 118.663 3.69801 118.656 3.53011Z" fill="black"/>
<path d="M119.185 2.91357C119.378 2.91357 119.543 2.98267 119.682 3.12085C119.82 3.25904 119.89 3.42514 119.89 3.61916C119.89 3.81318 119.821 3.97944 119.683 4.11794C119.545 4.25644 119.379 4.32569 119.185 4.32569C118.99 4.32569 118.823 4.25659 118.685 4.11841C118.546 3.98022 118.477 3.81381 118.477 3.61916C118.477 3.42514 118.546 3.25904 118.685 3.12085C118.823 2.98267 118.99 2.91357 119.185 2.91357ZM119.183 4.20965C119.344 4.20965 119.483 4.15178 119.599 4.03606C119.715 3.92033 119.773 3.78137 119.773 3.61916C119.773 3.45696 119.715 3.31831 119.599 3.2032C119.484 3.0881 119.345 3.03055 119.183 3.03055C119.021 3.03055 118.882 3.0881 118.767 3.2032C118.652 3.31831 118.594 3.45696 118.594 3.61916C118.594 3.78137 118.652 3.92033 118.767 4.03606C118.882 4.15178 119.021 4.20965 119.183 4.20965ZM119.512 4.01032H119.363C119.268 3.83876 119.207 3.74206 119.178 3.72023C119.149 3.69839 119.113 3.68748 119.07 3.68748H118.997V4.01032H118.874V3.2514H119.137C119.216 3.2514 119.276 3.25701 119.319 3.26824C119.361 3.27947 119.395 3.30333 119.422 3.33983C119.448 3.37632 119.461 3.41516 119.461 3.45633C119.461 3.50811 119.442 3.55522 119.405 3.59764C119.367 3.64006 119.314 3.66377 119.244 3.66876V3.6725C119.289 3.68311 119.348 3.74643 119.421 3.86247L119.512 4.01032ZM118.997 3.58267H119.146C119.215 3.58267 119.263 3.57253 119.29 3.55225C119.316 3.53198 119.33 3.50375 119.33 3.46756C119.33 3.432 119.317 3.40424 119.291 3.38428C119.265 3.36431 119.214 3.35433 119.137 3.35433H118.997V3.58267Z" fill="#F5F5F5"/>
</g>
<defs>
<clipPath id="clip0_1_266">
<rect width="122" height="25" fill="white" transform="translate(0 0.5)"/>
</clipPath>
</defs>
</svg>
