<svg width="120" height="41" viewBox="0 0 120 41" fill="none" xmlns="http://www.w3.org/2000/svg">
<path d="M45.5178 13.4122C45.3324 13.2219 45.089 13.1039 44.829 13.0783C44.5689 13.0526 44.3083 13.1209 44.0915 13.2716C43.8746 13.4222 43.7149 13.6459 43.6395 13.9045C43.5641 14.1632 43.5777 14.4408 43.6779 14.6903C43.7781 14.9398 43.9588 15.1457 44.1892 15.273C44.4196 15.4002 44.6855 15.441 44.9417 15.3885C45.1979 15.3359 45.4286 15.1931 45.5946 14.9845C45.7605 14.7759 45.8515 14.5142 45.852 14.2441C45.852 14.0895 45.8225 13.9364 45.7652 13.7936C45.7078 13.6509 45.6238 13.5212 45.5178 13.4122Z" fill="#61A568"/>
<path d="M50.3524 10.0718C50.5103 9.90775 50.6177 9.69906 50.6612 9.47199C50.7047 9.24493 50.6822 9.00964 50.5967 8.79575C50.5111 8.58185 50.3663 8.39891 50.1804 8.26995C49.9946 8.14099 49.776 8.07177 49.5521 8.07101C49.3262 8.06664 49.1042 8.13215 48.9145 8.25914C48.7248 8.38614 48.5761 8.56882 48.4875 8.78379C48.3988 8.99875 48.3743 9.23619 48.417 9.46567C48.4597 9.69515 48.5677 9.90622 48.7271 10.0718C48.8325 10.1846 48.9588 10.2742 49.0984 10.3355C49.238 10.3967 49.3881 10.4283 49.5398 10.4283C49.6914 10.4283 49.8415 10.3967 49.9811 10.3355C50.1207 10.2742 50.247 10.1846 50.3524 10.0718Z" fill="#61A568"/>
<path d="M50.2946 18.3437C50.1889 18.234 50.0632 18.1469 49.9248 18.0875C49.7864 18.028 49.638 17.9974 49.4882 17.9974C49.3383 17.9974 49.19 18.028 49.0516 18.0875C48.9132 18.1469 48.7875 18.234 48.6817 18.3437C48.5231 18.5078 48.4152 18.7169 48.3714 18.9444C48.3277 19.172 48.3502 19.4079 48.4361 19.6222C48.5219 19.8365 48.6673 20.0197 48.8539 20.1486C49.0404 20.2775 49.2597 20.3463 49.4841 20.3463C49.7084 20.3463 49.9277 20.2775 50.1142 20.1486C50.3008 20.0197 50.4462 19.8365 50.5321 19.6222C50.6179 19.4079 50.6404 19.172 50.5967 18.9444C50.553 18.7169 50.445 18.5078 50.2864 18.3437H50.2946Z" fill="#61A568"/>
<path d="M61.1188 8.92422C60.4831 6.56844 59.1766 4.46504 57.3691 2.8877C53.4215 -0.559311 48.2651 -0.704358 42.3127 1.31351C41.1721 1.69487 39.9802 1.88639 38.7816 1.8809H24.5707C23.3735 1.88593 22.183 1.69442 21.0438 1.31351C15.0913 -0.704358 9.93502 -0.559311 5.98733 2.8877C4.17994 4.46586 2.87224 6.56878 2.23352 8.92422C-0.819025 20.1867 -0.860276 29.8622 2.83991 37.5839C4.52293 41.0778 7.12997 41.722 10.4053 40.2843C11.3593 39.8583 12.2574 39.3093 13.0783 38.6504C15.4432 36.7753 17.4197 34.4281 18.8905 31.7478C19.1463 31.2743 19.3938 30.7922 19.6 30.2888C21.2501 26.6584 23.7581 24.5723 27.582 24.9776L31.6782 25.0629L35.7703 24.9776C39.6066 24.5893 42.0816 26.6755 43.7564 30.2888C43.9792 30.7752 44.2102 31.2572 44.4659 31.7308C45.9337 34.4181 47.9105 36.7716 50.2782 38.6504C51.099 39.3093 51.9972 39.8583 52.9512 40.2843C56.2265 41.722 58.8335 41.0778 60.5166 37.5839C64.2168 29.8622 64.1631 20.1867 61.1188 8.92422ZM14.0848 22.1833C12.5606 22.1841 11.0704 21.7174 9.8027 20.8423C8.53497 19.9672 7.54668 18.7229 6.96283 17.2668C6.37897 15.8107 6.22579 14.2082 6.52265 12.6621C6.8195 11.116 7.55307 9.69563 8.63055 8.58071C9.70804 7.46579 11.081 6.70639 12.5759 6.39855C14.0708 6.09072 15.6203 6.24828 17.0286 6.85132C18.4368 7.45435 19.6405 8.47577 20.4874 9.78637C21.3343 11.097 21.7863 12.6379 21.7863 14.2142C21.7852 16.3266 20.9736 18.3523 19.5297 19.8464C18.0857 21.3405 16.1274 22.181 14.0848 22.1833ZM30.0942 22.1491H26.5095V20.5067H30.0942V22.1491ZM36.8469 22.1491H33.2623V20.5067H36.8469V22.1491ZM47.4071 7.03008C47.9763 6.44236 48.7478 6.11227 49.5521 6.11227C50.3565 6.11227 51.128 6.44236 51.6972 7.03008C52.1209 7.46873 52.4093 8.02744 52.526 8.63559C52.6428 9.24375 52.5825 9.87404 52.353 10.4468C52.1234 11.0196 51.7348 11.5091 51.2363 11.8535C50.7377 12.1979 50.1517 12.3817 49.5521 12.3817C48.9526 12.3817 48.3666 12.1979 47.868 11.8535C47.3695 11.5091 46.9809 11.0196 46.7513 10.4468C46.5217 9.87404 46.4615 9.24375 46.5782 8.63559C46.695 8.02744 46.9834 7.46873 47.4071 7.03008ZM42.5725 16.4624C42.0036 15.8741 41.684 15.0761 41.684 14.244C41.684 13.412 42.0036 12.614 42.5725 12.0257C43.1414 11.4373 43.913 11.1068 44.7176 11.1068C45.5221 11.1068 46.2937 11.4373 46.8626 12.0257C47.1443 12.317 47.3677 12.6628 47.5202 13.0435C47.6726 13.4241 47.7511 13.8321 47.7511 14.244C47.7511 14.656 47.6726 15.064 47.5202 15.4446C47.3677 15.8253 47.1443 16.1711 46.8626 16.4624C46.5809 16.7537 46.2465 16.9848 45.8784 17.1425C45.5104 17.3002 45.1159 17.3813 44.7176 17.3813C43.913 17.3813 43.1414 17.0508 42.5725 16.4624ZM51.6477 21.4026C51.1505 21.9191 50.4954 22.2412 49.7942 22.3139C49.093 22.3867 48.3891 22.2056 47.8026 21.8015C47.216 21.3975 46.7832 20.7955 46.578 20.0983C46.3727 19.4011 46.4077 18.6518 46.677 17.9783C46.9462 17.3048 47.4331 16.7487 48.0545 16.405C48.676 16.0613 49.3935 15.9512 50.0846 16.0935C50.7758 16.2358 51.3978 16.6216 51.8446 17.1853C52.2914 17.7489 52.5352 18.4554 52.5346 19.1842C52.5347 19.5968 52.4556 20.0054 52.302 20.3862C52.1483 20.767 51.9231 21.1124 51.6394 21.4026H51.6477ZM56.4823 16.4027C56.0576 16.8417 55.5166 17.1407 54.9277 17.2618C54.3388 17.3829 53.7284 17.3206 53.1737 17.083C52.619 16.8453 52.1449 16.4428 51.8113 15.9265C51.4777 15.4102 51.2997 14.8032 51.2997 14.1822C51.2997 13.5612 51.4777 12.9542 51.8113 12.4379C52.1449 11.9215 52.619 11.5191 53.1737 11.2814C53.7284 11.0438 54.3388 10.9815 54.9277 11.1026C55.5166 11.2237 56.0576 11.5227 56.4823 11.9617C57.0497 12.5522 57.3675 13.3514 57.3659 14.184C57.3644 15.0165 57.0436 15.8144 56.474 16.4027H56.4823Z" fill="#61A568"/>
<path d="M14.0849 8.21179C12.9369 8.21179 11.8148 8.56383 10.8603 9.22338C9.90588 9.88293 9.16198 10.8204 8.72269 11.9172C8.2834 13.014 8.16846 14.2209 8.39241 15.3852C8.61636 16.5496 9.16913 17.6191 9.98083 18.4585C10.7925 19.298 11.8267 19.8697 12.9526 20.1013C14.0784 20.3329 15.2454 20.214 16.3059 19.7597C17.3665 19.3054 18.2729 18.536 18.9107 17.5489C19.5484 16.5619 19.8888 15.4014 19.8888 14.2142C19.8877 12.6226 19.2759 11.0965 18.1877 9.9711C17.0995 8.84568 15.6238 8.21292 14.0849 8.21179ZM18.9813 14.2569C18.9813 14.5171 18.8813 14.7667 18.7034 14.9507C18.5255 15.1347 18.2842 15.2381 18.0325 15.2381H15.0212V18.3438C15.0053 18.5934 14.8982 18.8274 14.7217 18.9983C14.5451 19.1693 14.3123 19.2644 14.0704 19.2644C13.8285 19.2644 13.5957 19.1693 13.4191 18.9983C13.2426 18.8274 13.1355 18.5934 13.1196 18.3438V15.2295H10.1248C9.87316 15.2295 9.63184 15.1261 9.45391 14.9421C9.27598 14.7581 9.17603 14.5086 9.17603 14.2483C9.17603 13.9881 9.27598 13.7385 9.45391 13.5545C9.63184 13.3705 9.87316 13.2671 10.1248 13.2671H13.132V10.1529C13.1234 10.0183 13.1416 9.88332 13.1855 9.75632C13.2294 9.62932 13.2981 9.51299 13.3872 9.41453C13.4763 9.31608 13.5841 9.23759 13.7037 9.18394C13.8234 9.13028 13.9524 9.10259 14.0828 9.10259C14.2132 9.10259 14.3422 9.13028 14.4619 9.18394C14.5815 9.23759 14.6893 9.31608 14.7784 9.41453C14.8675 9.51299 14.9362 9.62932 14.9801 9.75632C15.024 9.88332 15.0422 10.0183 15.0336 10.1529V13.2671H18.0449C18.2958 13.2705 18.5352 13.3765 18.7107 13.562C18.8862 13.7475 18.9835 13.9973 18.9813 14.2569Z" fill="#61A568"/>
<path d="M54.329 13.0111C54.0664 13.0112 53.812 13.1055 53.6091 13.2779C53.4063 13.4503 53.2675 13.6901 53.2165 13.9565C53.1656 14.2229 53.2055 14.4993 53.3296 14.7386C53.4536 14.9779 53.6541 15.1653 53.8969 15.2689C54.1396 15.3724 54.4096 15.3856 54.6607 15.3063C54.9118 15.227 55.1285 15.06 55.2739 14.8339C55.4193 14.6078 55.4844 14.3365 55.458 14.0664C55.4316 13.7962 55.3154 13.5439 55.1292 13.3524C54.9161 13.1345 54.6287 13.0119 54.329 13.0111Z" fill="#61A568"/>
<path d="M74.7769 13.7875C74.3948 13.968 73.997 14.1108 73.5889 14.2141C73.2031 14.3152 72.8071 14.3697 72.4091 14.3762C71.5277 14.3954 70.6547 14.1949 69.864 13.7918C69.1642 13.4319 68.5788 12.8723 68.1768 12.1792C67.7743 11.4683 67.5688 10.6565 67.5828 9.83283C67.5531 8.85897 67.7707 7.89407 68.2139 7.03427C68.6047 6.30554 69.1944 5.71202 69.9094 5.32783C70.637 4.94434 71.444 4.74962 72.2606 4.76044C72.7861 4.75705 73.3099 4.82154 73.8199 4.95241C74.2667 5.06478 74.6988 5.23236 75.1069 5.45155L74.5253 7.15798C74.2121 6.992 73.8813 6.86457 73.5394 6.7783C73.1999 6.6758 72.8492 6.61846 72.4958 6.60766C71.6705 6.54903 70.8555 6.82438 70.2229 7.37556C69.9458 7.67778 69.733 8.03657 69.5981 8.4289C69.4631 8.82122 69.4089 9.2384 69.4391 9.65365C69.4269 10.1857 69.5598 10.7106 69.8227 11.1681C70.0778 11.5998 70.4491 11.9452 70.8911 12.1621C71.3812 12.3996 71.9175 12.5178 72.4586 12.5077C72.8842 12.5335 73.3094 12.45 73.6962 12.2645V11.1212H72.1245V9.32943H75.5153V13.3097C75.2989 13.5134 75.0487 13.6753 74.7769 13.7875Z" fill="#61A568"/>
<path d="M82.0948 12.4139H79.0752L78.3327 14.2568H76.563L80.6881 4.44482H80.7871L84.9122 14.2568H82.8497L82.0948 12.4139ZM81.5008 10.8525L80.6221 8.56161L79.7064 10.8525H81.5008Z" fill="#61A568"/>
<path d="M95.5631 4.45336V14.2654H93.7687V9.76465L90.7987 14.1289H90.7574L87.8988 10.0462V14.2568H86.1662V4.44482L90.7822 11.2151L95.5095 4.44482L95.5631 4.45336Z" fill="#61A568"/>
<path d="M99.7088 4.83728V14.2568H97.9144V4.83728H99.7088Z" fill="#61A568"/>
<path d="M110.265 4.83731V14.6493H110.215L103.842 8.68959L103.879 14.2568H102.06V4.44482H102.134L108.495 10.5069L108.458 4.83731H110.265Z" fill="#61A568"/>
<path d="M119.253 13.7875C118.871 13.968 118.473 14.1108 118.065 14.2141C117.679 14.3153 117.284 14.3697 116.886 14.3762C116.004 14.3954 115.131 14.195 114.34 13.7918C113.641 13.4319 113.055 12.8723 112.653 12.1792C112.251 11.4683 112.045 10.6565 112.059 9.83285C112.03 8.85899 112.247 7.8941 112.69 7.03429C113.081 6.30556 113.671 5.71204 114.386 5.32786C115.114 4.93415 115.924 4.73057 116.745 4.73487C117.271 4.73148 117.795 4.79597 118.305 4.92684C118.751 5.03921 119.184 5.20679 119.592 5.42598L119.01 7.13241C118.697 6.96643 118.366 6.839 118.024 6.75273C117.685 6.65023 117.334 6.59289 116.98 6.58209C116.155 6.52346 115.34 6.79881 114.708 7.34999C114.431 7.65221 114.218 8.011 114.083 8.40333C113.948 8.79565 113.894 9.21283 113.924 9.62808C113.912 10.1602 114.044 10.685 114.307 11.1425C114.563 11.5742 114.934 11.9197 115.376 12.1365C115.866 12.374 116.402 12.4922 116.943 12.4821C117.369 12.5079 117.794 12.4244 118.181 12.2389V11.1212H116.609V9.32945H120V13.3097C119.781 13.5143 119.528 13.6762 119.253 13.7875Z" fill="#61A568"/>
<path d="M73.8694 29.4356C73.3413 29.6366 72.7821 29.7364 72.2194 29.7299C71.3536 29.7518 70.4983 29.5306 69.7443 29.09C69.0644 28.6878 68.5071 28.0967 68.1356 27.3836C67.7618 26.6532 67.5704 25.8379 67.5787 25.0116C67.5634 24.1328 67.7545 23.2632 68.1356 22.4776C68.4885 21.7437 69.0385 21.1305 69.7196 20.7114C70.4213 20.2892 71.222 20.0752 72.0337 20.0928C72.5536 20.0878 73.0712 20.1655 73.5683 20.3232C74.0027 20.4602 74.4185 20.6537 74.8058 20.8991L74.1004 22.6525C73.533 22.1735 72.8277 21.9034 72.0956 21.8846C71.6345 21.8843 71.1832 22.0221 70.7962 22.2813C70.3892 22.5482 70.0565 22.9202 69.831 23.3606C69.5894 23.8275 69.466 24.3499 69.4721 24.8794C69.4602 25.4296 69.5748 25.975 69.8062 26.4706C70.017 26.9154 70.348 27.2873 70.7591 27.5414C71.1984 27.8047 71.6994 27.9376 72.207 27.9254C72.6175 27.9314 73.0253 27.8546 73.4074 27.6993C73.7117 27.5773 73.9914 27.3979 74.2324 27.1703L74.9749 28.834C74.6388 29.0927 74.2659 29.2956 73.8694 29.4356Z" fill="#61A568"/>
<path d="M78.5596 20.1953V27.8231H82.8414V29.6149H76.7652V20.1953H78.5596Z" fill="#61A568"/>
<path d="M86.5664 26.9912C86.7426 27.2671 86.9803 27.4953 87.2594 27.6567C87.5414 27.8255 87.8617 27.9139 88.1875 27.9127C88.5293 27.9161 88.8661 27.8279 89.1651 27.6567C89.448 27.4991 89.6877 27.2702 89.8623 26.9912C90.0256 26.7384 90.1145 26.442 90.118 26.138V20.1953H91.8877V26.1678C91.8957 26.8117 91.7238 27.4442 91.3927 27.9895C91.0653 28.5346 90.6004 28.9771 90.0479 29.2693C89.4721 29.5694 88.8364 29.7257 88.1916 29.7257C87.5469 29.7257 86.9111 29.5694 86.3354 29.2693C85.7865 28.9766 85.3256 28.534 85.003 27.9895C84.6762 27.4426 84.5074 26.8106 84.5162 26.1678V20.1953H86.3106V26.1337C86.3117 26.4395 86.4007 26.738 86.5664 26.9912Z" fill="#61A568"/>
<path d="M99.8614 25.5493C100.131 25.9173 100.276 26.3672 100.274 26.8291C100.304 27.2305 100.237 27.6335 100.077 28.0009C99.9182 28.3684 99.6723 28.6886 99.3623 28.9323C98.6943 29.4001 97.8998 29.6362 97.0935 29.6063H94.0575V20.1953H96.7305C97.5318 20.1487 98.3274 20.3603 99.0075 20.8011C99.2778 20.9988 99.4952 21.2641 99.6394 21.5722C99.7837 21.8803 99.8501 22.2211 99.8326 22.563C99.8417 22.9924 99.7436 23.417 99.5479 23.7959C99.3589 24.1499 99.081 24.4447 98.7435 24.6491C99.1827 24.8485 99.5669 25.1579 99.8614 25.5493ZM95.8477 24.0476H96.945C97.0874 24.056 97.2299 24.0322 97.3625 23.9776C97.495 23.9231 97.6144 23.8392 97.7123 23.7319C97.8953 23.5201 97.9927 23.2437 97.9845 22.9597C97.9935 22.822 97.9701 22.684 97.9162 22.5577C97.8623 22.4314 97.7796 22.3205 97.6751 22.2345C97.4253 22.0555 97.1246 21.9683 96.8213 21.9871H95.856L95.8477 24.0476ZM98.0175 27.6226C98.1482 27.5422 98.2554 27.4268 98.328 27.2887C98.4006 27.1505 98.4359 26.9947 98.43 26.8376C98.43 26.1721 97.9185 25.8394 96.8955 25.8394H95.8684V27.8871H97.0193C97.3696 27.8993 97.716 27.8075 98.0175 27.6226Z" fill="#61A568"/>
</svg>
