<svg width="79" height="26" viewBox="0 0 79 26" fill="none" xmlns="http://www.w3.org/2000/svg">
<path d="M62.3884 1.19556C62.2704 2.85707 62.7818 4.44131 64.3159 5.25274C64.67 6.72106 64.7486 8.30529 64.67 9.92817C64.5126 11.6283 64.2766 13.3285 63.8046 14.9127L63.2538 15.4537V18.313C63.1358 18.3517 62.9785 18.313 62.8211 18.3517C62.7818 18.1198 62.8211 17.8493 62.7818 17.5789C62.1131 17.5402 62.1524 18.2357 62.0737 18.6994C61.9557 19.7427 61.8377 20.9405 62.0737 21.9838C61.759 21.9065 61.405 21.8679 61.051 21.8293L60.933 20.4382C60.7363 20.3996 60.4609 20.4769 60.3036 20.5928C59.9495 20.9019 59.8709 21.3269 59.7135 21.752H59.4775L59.5955 19.7813L60.3036 19.2017C60.3822 18.4676 60.4216 17.6948 60.3822 16.922L59.0448 18.3517L56.4879 23.4908L56.4485 23.5294C56.8419 23.4908 57.2353 23.3748 57.6287 23.2976C57.668 23.143 57.7073 22.9884 57.668 22.7952C57.786 22.7566 57.9434 22.718 58.1007 22.718C57.5893 24.3408 55.8192 25.2296 54.2063 25.3455C52.9082 24.4568 51.6888 23.4135 50.5087 22.2929C48.3058 16.6515 48.3451 9.11673 50.2726 3.35939C50.2726 2.70251 50.9807 3.24347 51.3347 3.16619C51.3347 3.55259 51.0594 4.01627 50.666 4.20947C50.3513 4.28675 50.3513 4.71179 50.2333 4.98226C49.9579 5.94826 49.8399 6.9529 49.8399 7.99617C50.8234 7.41658 51.4921 6.3733 51.9248 5.4073L53.1049 5.52322L53.3409 9.38721C53.2229 9.54177 52.8689 9.30993 52.9082 9.61905L52.5935 14.99C52.4755 17.3084 52.6329 19.6268 52.7902 21.8679C53.4983 21.9838 54.2063 21.752 54.8357 21.4429C57.9827 19.6268 58.4547 16.1492 59.5562 13.2126C60.3822 10.4691 60.4609 7.41658 60.6576 4.44131C60.9723 3.20483 61.1297 1.81379 62.3884 1.19556Z" fill="#F5F5F5"/>
<path d="M14.9087 4.90499H15.3021L15.4594 6.21875C17.0722 7.18474 17.3083 8.92354 17.5836 10.5078C18.9211 9.19402 19.6685 7.60978 20.6519 6.14147C21.36 5.05955 22.5401 4.71179 23.7989 4.90499L25.1756 10.1214C24.4282 12.3238 24.1135 14.7195 24.0349 17.1538C23.8775 17.2698 23.6808 17.4629 23.5235 17.4629L23.4055 17.3084L23.2481 10.4691V10.4305C21.714 10.5078 20.6519 12.1306 20.2192 13.4058C19.4324 15.531 18.8817 17.7721 18.449 20.0905L15.8134 19.3177L15.3021 13.9467C15.1447 13.8694 14.948 13.9081 14.7513 13.9081C13.8073 17.1152 13.9253 20.786 13.0599 24.0317C12.8632 24.5727 12.6272 25.1523 12.0764 25.5C11.4077 24.3022 10.1883 23.2589 10.1489 21.752C9.83422 21.6361 9.48019 21.7133 9.12616 21.7133C9.55887 17.5402 9.79489 13.2126 11.1717 9.38722C11.7617 9.54178 12.6272 9.69633 13.1779 9.2713C13.8859 8.57578 14.0826 7.64842 14.24 6.72106C14.358 5.98691 14.476 5.29139 14.476 4.51859L14.1613 4.47995V3.70715H14.8694L14.9087 4.90499Z" fill="#F5F5F5"/>
<path d="M47.2044 6.52776C47.5978 6.79824 48.0305 6.9528 48.4632 7.146C48.5418 10.4304 48.3058 13.5989 47.5978 16.5741L46.9684 17.0764L46.8503 22.5247L45.7883 22.2928C45.5522 20.8245 45.4342 19.2789 45.0802 17.8106C44.3328 16.9219 43.31 16.5741 42.2873 16.3809C42.3266 16.8832 42.5233 17.3856 42.5626 17.9265C41.7759 18.0811 40.9891 18.3129 40.5171 19.0471C39.927 20.3608 40.0844 21.9837 39.927 23.452C39.809 24.0316 39.6123 24.6499 39.0223 24.959C38.7076 25.0363 38.3536 24.9203 38.1175 24.7271C37.4881 24.1475 37.1735 23.452 36.9768 22.6792C36.5047 22.5633 36.0327 22.4088 35.5606 22.2928L35.364 20.3995C35.482 20.4381 35.6393 20.4381 35.7573 20.4381V21.52L36.308 21.1336C36.5834 19.0857 37.2521 17.1924 37.0161 14.9513C37.1341 14.9126 37.2521 14.9126 37.3701 14.9126C37.4488 15.0285 37.3701 15.2604 37.4488 15.3763C37.5275 15.4149 37.6455 15.3763 37.7635 15.4149C37.8028 15.0285 37.8422 14.5649 37.7242 14.1785C37.4095 14.0239 37.0161 14.1398 36.6621 14.1785C37.2521 13.2897 37.9995 12.4397 38.3929 11.4737L39.101 6.06408C39.1796 5.90952 39.2976 5.7936 39.4157 5.71633C40.2024 5.75497 41.1858 5.36857 41.6972 6.10272C42.0512 8.22792 40.7138 9.88943 41.1072 12.0533L41.2252 12.9806C42.1299 13.6375 42.9953 14.4103 44.1754 14.2944C44.8048 13.8307 44.8835 13.0965 44.9622 12.3624C45.0015 9.77351 44.7655 7.03008 45.6702 4.78897C45.9849 4.71169 46.2603 4.59577 46.575 4.55713L47.2044 6.52776Z" fill="#F5F5F5"/>
<path d="M78.2413 4.44124C78.0839 4.44124 77.8872 4.4026 77.7299 4.47988L77.6119 6.10276H77.2185C75.645 5.67772 74.6223 4.0162 73.4422 2.85701C72.7341 2.16149 71.9867 1.50461 70.9639 1.54325C69.9412 1.92965 69.3904 3.05021 68.9577 3.93892C68.8004 3.93892 68.643 3.90028 68.4857 3.97756C67.3843 4.17076 67.1089 5.32996 66.7549 6.1414H66.3222L66.1255 8.11203C66.2828 8.22795 66.5975 8.07339 66.7549 8.22795C67.0696 9.58034 68.289 10.7782 69.5478 11.4351C69.7051 11.5123 69.9412 11.6669 69.8625 11.8601L62.7425 20.3609L62.9785 22.061C63.7653 22.2542 64.434 22.8338 65.1027 23.3748C67.4236 21.9837 69.3904 19.704 71.318 17.6947C71.3573 17.5402 71.2393 17.3856 71.1999 17.2697L68.9971 19.6654C68.8791 19.5494 68.8397 19.3562 68.7611 19.2403L69.8625 18.0425C69.9018 17.772 69.8231 17.5015 69.8231 17.2697C71.1999 15.9559 71.8687 14.3717 72.6947 12.8261L73.3241 12.7875L73.6388 11.8601L74.3076 11.8987C74.7796 13.2898 74.8976 14.874 74.9763 16.4196L75.0156 22.1383C75.1336 22.1383 75.2517 22.1769 75.3697 22.0997C75.527 21.0177 75.6057 19.9358 75.8024 18.8539C75.9204 18.8926 76.0777 18.8153 76.1957 18.8926C76.2744 20.0518 76.2744 21.3269 76.0777 22.4474L77.8086 22.4088L77.9659 21.4041L78.6346 15.9559C78.91 12.2465 79.4607 7.95747 78.2413 4.44124ZM73.0488 11.6283C71.7113 11.551 70.4919 11.0873 69.7445 9.9281C69.2724 9.11667 69.0364 8.15067 69.2331 7.14603L71.1999 8.96211C71.2393 8.73027 71.2393 8.45979 71.1999 8.18931C71.0033 7.99611 70.8066 7.91883 70.6099 7.72563V6.87555H70.6886C71.4753 8.26659 72.4587 9.58034 73.6388 10.8168C73.5602 11.1259 73.3635 11.4737 73.0488 11.6283Z" fill="#F5F5F5"/>
<path d="M35.7573 13.3671C35.3639 11.2419 34.9706 9.11669 34.9312 6.7983C34.6952 4.59583 34.1051 2.50927 33.3577 0.5C32.3743 0.57728 31.3122 0.5 30.3288 0.53864C30.1714 1.6592 29.9748 2.70247 29.6994 3.78439L27.3785 11.6283L26.3558 16.1105C26.1984 16.1878 26.0017 16.2651 25.8444 16.2651C25.805 15.1059 25.8444 13.908 25.805 12.7488C25.5297 13.058 25.215 13.3284 24.9396 13.6376C24.4283 17.3856 24.4283 21.5201 25.0576 25.2295C26.1984 24.8431 27.4572 24.8045 28.716 24.7272L28.834 22.4088L29.2667 16.9606L29.5421 15.7241C29.9354 14.7581 30.9582 14.1399 31.9416 14.0626C31.9809 14.1012 32.0203 14.1399 31.981 14.1785L33.1611 20.245L34.5772 19.3949C34.4985 18.5062 34.3805 17.5788 34.3412 16.6901H34.4198C35.0886 16.7287 34.8132 17.5402 35.0886 17.9652C35.2459 17.8879 35.4033 17.8493 35.5213 17.7334L35.4819 13.5603L35.7573 13.3671ZM31.3122 12.3238C30.9189 12.5943 30.4861 12.6716 30.0534 12.8261L30.4468 10.044C30.8008 10.2759 31.1942 10.585 31.3122 10.9714C31.2729 11.4351 31.4302 11.8988 31.3122 12.3238Z" fill="#F5F5F5"/>
<path d="M3.97303 15.8787C4.16972 15.7628 4.40574 15.5696 4.40574 15.3377C4.20906 14.9513 3.69768 14.9513 3.34364 15.0286L3.38298 15.9946C3.57966 16.0719 3.77635 15.9173 3.97303 15.8787ZM4.16972 21.752C4.13038 21.752 4.13038 21.7133 4.13038 21.6747L4.05171 21.4815C3.97303 21.211 4.13038 20.8246 3.9337 20.5928C3.77635 20.5155 3.619 20.6314 3.50099 20.67C3.50099 21.0951 3.54033 21.5201 3.26497 21.8292C3.22563 21.5588 3.22563 21.2883 3.14696 21.0564L3.10762 21.0951C2.91094 21.636 2.83226 22.4088 3.30431 22.8339C3.34364 22.718 3.30431 22.5634 3.42232 22.4861C3.46165 22.602 3.50099 22.7566 3.50099 22.8725C3.54033 23.0271 3.65834 23.143 3.81569 23.1044C4.09105 23.0271 4.05171 22.718 4.13038 22.4861C4.24839 22.602 4.20906 22.7566 4.24839 22.8725C4.44508 22.6793 4.52375 22.4861 4.60243 22.2543C4.64176 21.7906 4.6811 21.211 4.32707 20.8632C4.3664 21.2496 4.28773 21.5201 4.16972 21.752ZM7.51336 2.85706C7.27734 2.35474 6.72662 1.92971 6.17591 1.81379L1.45547 1.77515L1.02276 1.92971C0.511381 2.16155 0.078674 2.62522 0 3.16618V23.4521C0.118011 24.0704 0.668729 24.65 1.29812 24.7659H6.17591C6.8053 24.6886 7.39535 24.1863 7.5527 23.568L7.59204 3.43666L7.51336 2.85706ZM3.1863 10.0827C3.14696 9.92816 2.98961 9.85088 2.8716 9.81224L2.83226 9.88952C2.83226 10.4691 2.83226 11.0487 2.75359 11.5897V9.30992C2.91094 9.15536 3.30431 9.15536 3.46165 9.30992H4.79911C4.79911 9.61904 4.75977 9.9668 4.83845 10.2759C4.75977 9.73496 4.13038 9.88952 3.73701 9.88952L3.65834 9.9668V12.9034C3.73701 12.9807 3.73701 13.0966 3.85502 13.1353H2.67491C2.67491 13.0966 2.63558 13.058 2.63558 13.058C2.91094 13.0194 3.1863 12.8262 3.26497 12.5557C3.14696 11.7442 3.26497 10.8942 3.1863 10.0827ZM4.83845 14.7968C5.03513 14.99 5.11381 15.2218 5.15314 15.4537C5.11381 15.8401 5.03513 16.1878 4.72044 16.4197C4.3664 16.7288 3.89436 16.7674 3.42232 16.8061L3.30431 18.1971C3.22563 18.2744 3.06828 18.2357 2.95027 18.2357L2.91094 18.1585V15.0673C2.79293 14.9513 2.47823 14.8741 2.51757 14.6422C3.26497 14.7195 4.09105 14.6422 4.83845 14.7968ZM4.72044 23.3362C4.3664 23.7612 3.85502 23.9158 3.34364 23.7226C2.5569 23.2976 2.47823 22.4088 2.51757 21.5588C2.59624 20.9792 2.71425 20.2836 3.34364 20.0518C3.9337 19.8586 4.60243 20.1291 4.87778 20.67C5.27115 21.4428 5.23182 22.602 4.72044 23.3362ZM5.27115 4.6345C5.23182 4.55722 5.19248 4.51858 5.15314 4.47994C4.9958 4.40266 4.91712 4.55722 4.87778 4.67314L4.79911 7.10745C4.75977 7.18473 4.72044 7.30065 4.6811 7.41657L4.64176 5.40729C4.60243 5.29138 4.44508 5.2141 4.3664 5.29138C3.57966 6.02553 2.91094 6.87561 2.16353 7.57113H2.08486C2.00619 6.37329 2.04552 5.09818 2.04552 3.8617C2.20287 3.62986 2.71425 3.6685 2.8716 3.82306C2.91094 4.32538 2.75359 4.94362 3.14696 5.29138C3.42232 5.25274 3.50099 4.98226 3.65834 4.78906C3.85502 4.47994 4.01237 4.09354 4.28773 3.82306H5.19248C5.31049 4.0549 5.23182 4.36402 5.27115 4.6345Z" fill="#F5F5F5"/>
</svg>
