<svg width="96" height="30" viewBox="0 0 96 30" fill="none" xmlns="http://www.w3.org/2000/svg">
<path d="M95.6405 7.58819C95.4841 7.39759 95.2867 7.24394 95.0627 7.13843C94.8387 7.03291 94.5938 6.97819 94.3457 6.97825H88.4537C88.0664 6.97606 87.6904 7.10699 87.3897 7.34872C87.089 7.59045 86.8823 7.92799 86.8049 8.30378L86.2569 11.6656C85.5132 11.5038 84.7536 11.4249 83.9922 11.4303H83.677L84.0407 8.95694C84.0903 8.71622 84.0853 8.46758 84.0259 8.22904C83.9665 7.99049 83.8543 7.768 83.6974 7.57769C83.5405 7.38737 83.3429 7.234 83.1188 7.12866C82.8946 7.02332 82.6497 6.96867 82.4016 6.96864H76.5144C76.1288 6.96868 75.755 7.10062 75.4563 7.34216C75.1576 7.5837 74.9524 7.92 74.8753 8.29418L74.7346 8.98576C74.3568 8.43318 73.8743 7.95854 73.3137 7.58819C72.2957 6.96353 71.1165 6.64488 69.9191 6.67088C68.8434 6.66459 67.7798 6.89593 66.8058 7.34805C66.5053 7.09482 66.1238 6.95528 65.7292 6.95424H41.9331C41.6567 6.95184 41.3841 7.01725 41.1396 7.14463C40.895 7.27202 40.6861 7.45741 40.5316 7.68424L40.4831 7.75628C40.4439 7.69245 40.4001 7.63146 40.3521 7.57378C40.1957 7.38318 39.9983 7.22953 39.7743 7.12402C39.5503 7.01851 39.3054 6.96379 39.0573 6.96384H33.6793C34.1109 6.96384 31.4825 4.56252 29.7464 4.25035C28.0103 3.93817 27.5448 1.23428 25.4547 1.21507C24.7709 1.21507 24.1647 1.6281 23.4907 1.69534C24.189 1.88264 26.1869 2.51179 24.8485 3.36185C23.8107 4.01982 22.5984 3.2658 21.9146 2.49738C20.4016 0.79724 18.7237 -0.16329 16.3717 0.576318C17.1621 0.720397 20.2512 2.14678 18.1563 2.70389C17.1282 2.97284 16.3668 2.22363 15.6976 1.56566C14.8587 0.749213 14.301 0.408225 13.0935 0.480265C12.5755 0.542616 12.0532 0.561894 11.532 0.537897C11.0119 0.453267 10.5131 0.270671 10.0626 0C10.0022 0.190929 9.98474 0.392655 10.0116 0.590971C10.0384 0.789287 10.1088 0.97937 10.2178 1.14783C10.4845 1.51283 10.9064 1.44079 11.2507 1.67132C12.2206 2.30527 10.9694 3.06889 10.3147 3.03527C10.1261 3.04307 9.9378 3.0129 9.76125 2.94658C9.5847 2.88026 9.42357 2.77918 9.28758 2.64945C9.1516 2.51971 9.04358 2.36402 8.97008 2.19177C8.89657 2.01952 8.8591 1.83431 8.85992 1.64731C8.5447 2.7135 8.37497 3.22258 9.0345 4.07265C9.34486 4.46646 9.98014 5.37897 8.98115 5.29252C8.08401 5.21568 8.45741 4.07265 7.85608 3.68843C6.8377 3.04008 5.43137 4.24554 5.23254 5.18206C6.76981 3.90936 8.52046 6.03213 6.8765 6.58924C6.32852 6.79569 5.72026 6.77869 5.18491 6.54195C4.64957 6.30521 4.23075 5.86803 4.02018 5.32614C4.47118 6.28667 4.09777 7.15595 5.43137 7.42009C6.36246 7.6074 7.54087 7.19437 8.34103 7.87635C9.28182 8.68799 8.19069 10.2777 7.08502 9.99912C5.89691 9.73017 5.44591 7.95799 4.17536 7.87154C3.18123 7.80431 2.42472 9.12503 1.89128 9.75418C2.86117 9.09622 3.72922 8.84168 4.51482 9.84543C4.90763 10.3497 5.1307 10.9212 5.66414 11.3102C6.19758 11.6993 6.56128 11.7281 7.11897 12.0931C8.43317 13.0056 6.77466 13.5339 5.79022 13.0536C4.66031 12.4725 4.62151 11.4399 3.18608 11.4063C1.93977 11.3535 0 12.3044 0 12.3044C0 12.3044 2.57505 12.2275 3.67587 12.8519C4.01712 13.0341 4.28054 13.3321 4.41773 13.6912C4.55492 14.0502 4.55668 14.4463 4.42268 14.8066C4.13657 15.5222 2.54595 16.0985 2.04161 15.4645C1.93853 15.3591 1.86605 15.2281 1.83179 15.0853C1.79753 14.9426 1.80276 14.7933 1.84693 14.6532C1.8911 14.5131 1.97258 14.3874 2.08279 14.2893C2.193 14.1912 2.32787 14.1244 2.47321 14.0958C1.86703 13.9901 0.68377 14.1486 1.01838 15.868C1.2657 17.2271 2.95815 17.1647 4.02018 16.9437C4.99007 16.7372 6.68737 16.0745 6.57098 17.5873C6.58245 17.8082 6.53056 18.0278 6.42132 18.2207C6.31207 18.4136 6.14993 18.572 5.95363 18.6775C5.75733 18.7829 5.5349 18.8313 5.31204 18.8168C5.08918 18.8024 4.875 18.7258 4.69425 18.5959C3.66132 18.034 2.62839 17.4336 1.64396 18.4998C2.52656 18.4998 3.70982 18.7591 4.03473 19.6717C4.10078 19.8211 4.12731 19.9848 4.1118 20.1472C4.0963 20.3096 4.03928 20.4654 3.94612 20.6C3.85295 20.7346 3.72672 20.8434 3.57932 20.9162C3.43192 20.9891 3.26821 21.0236 3.10364 21.0164C2.44896 21.05 2.04646 20.368 2.26954 19.494C1.99797 19.7457 1.82993 20.088 1.7977 20.455C1.76548 20.822 1.87134 21.1879 2.09496 21.4823C2.90481 22.4428 6.8668 21.3478 6.10544 22.5677C5.89206 22.9182 5.29073 22.875 4.96097 23.0047C3.8262 23.4465 4.10262 24.3398 4.96097 24.9834C4.92218 23.0623 7.49723 24.1573 8.43801 24.6952C10.2566 25.7374 7.09472 26.6739 6.13453 25.1179C6.8862 27.7065 9.52914 27.5432 11.4689 26.4194C12.2789 25.8728 13.2737 25.664 14.2379 25.8383C15.0429 26.0063 16.1777 26.6691 15.0187 27.279C14.0436 27.6702 12.9532 27.6702 11.9781 27.279C12.7395 28.3308 13.7142 29.1617 15.0769 29.2289C16.653 29.3106 18.0447 28.3116 19.5238 27.9466C20.0088 27.8217 22.7875 27.5048 21.7352 28.6334C21.0271 29.397 19.3104 29.2001 18.3939 29.0176C19.0678 29.5915 19.9115 29.9331 20.7983 29.9912C21.6851 30.0492 22.567 29.8205 23.3112 29.3394C24.0386 28.912 24.8097 28.254 25.7359 28.3308C26.6622 28.4077 26.0027 29.0416 25.4159 29.5459C26.3818 29.5452 27.3345 29.3233 28.1995 28.8975C28.8676 28.4357 29.3972 27.8034 29.7319 27.0677C30.3971 25.6033 30.8556 24.0551 31.0946 22.4668C33.0343 22.3035 35.0469 22.438 37.0012 22.438C37.275 22.438 37.5447 22.3715 37.7865 22.2442C38.0283 22.1169 38.2349 21.9328 38.3881 21.708V21.6792C38.4209 21.7318 38.4583 21.7817 38.4997 21.828C38.6561 22.0186 38.8535 22.1723 39.0775 22.2778C39.3015 22.3833 39.5464 22.438 39.7945 22.438H52.2381C52.6235 22.437 52.9968 22.3048 53.2953 22.0634C53.5938 21.822 53.7993 21.4862 53.8772 21.1124L55.2011 14.5136H57.2718L55.0265 25.5597C54.9769 25.8004 54.982 26.0491 55.0413 26.2876C55.1007 26.5262 55.2129 26.7486 55.3698 26.939C55.5267 27.1293 55.7243 27.2826 55.9485 27.388C56.1726 27.4933 56.4176 27.548 56.6656 27.548H62.5577C62.9424 27.5473 63.3152 27.4157 63.6136 27.1753C63.912 26.9348 64.1179 26.6001 64.1968 26.2273L65.0067 22.3371C65.7426 22.6043 66.5216 22.7362 67.3053 22.7261C69.1369 22.7566 70.9196 22.1403 72.3342 20.9876C72.3673 21.3048 72.4938 21.6054 72.6979 21.8521C72.855 22.0419 73.0526 22.195 73.2764 22.3004C73.5002 22.4059 73.7448 22.461 73.9927 22.462H91.824C92.2094 22.4611 92.5827 22.3288 92.8812 22.0874C93.1797 21.846 93.3852 21.5102 93.4631 21.1365L95.9655 9.00977C96.0158 8.76915 96.0111 8.52039 95.9515 8.28184C95.8919 8.04329 95.779 7.82102 95.6211 7.63141" fill="#0D0802"/>
<path d="M47.6893 8.66882L45.187 20.7955H39.809L40.9777 15.1188H40.8613L37.0012 20.7955H31.177L33.6793 8.66882H39.0573L37.8886 14.3311H38.005L41.9137 8.66882H47.6893Z" fill="#F5F5F5"/>
<path d="M59.0612 8.66882L58.1544 12.8711H53.8481L52.2526 20.7955H46.3557L48.858 8.66882H59.0612Z" fill="#F5F5F5"/>
<path d="M74.1333 12.9671C74.1333 15.3749 73.4867 17.3231 72.1935 18.812C71.6084 19.5235 70.8681 20.0945 70.0282 20.4821C69.1883 20.8697 68.2706 21.0639 67.3441 21.05C66.7452 21.0617 66.1495 20.9606 65.5886 20.7522C64.8721 20.4796 64.2934 19.9375 63.9786 19.2442L62.5577 25.8815H56.6802L60.2397 8.64476H65.7098L65.2879 10.7099H65.3849C65.8794 9.96451 66.559 9.35755 67.3586 8.94732C68.1466 8.55534 69.018 8.35607 69.8997 8.3662C70.78 8.3346 71.6502 8.56007 72.4021 9.01456C73.5562 9.77018 74.1333 11.0893 74.1333 12.9719V12.9671ZM66.67 12.3092C66.35 12.3106 66.0401 12.4208 65.7923 12.6214C65.4673 12.9008 65.2145 13.2532 65.0552 13.6491C64.7115 14.4223 64.5364 15.2585 64.5411 16.1033C64.525 16.2999 64.5499 16.4976 64.6141 16.6843C64.6783 16.871 64.7806 17.0427 64.9145 17.1887C65.0089 17.2751 65.1196 17.3421 65.2403 17.3858C65.361 17.4295 65.4893 17.449 65.6177 17.4432C65.9118 17.4506 66.2001 17.361 66.4373 17.1887C66.8029 16.9054 67.0858 16.5307 67.2568 16.1033C67.4109 15.7119 67.5325 15.3087 67.6205 14.8978C67.7129 14.4876 67.7633 14.0693 67.7708 13.6491C67.7939 13.4407 67.7678 13.2299 67.6946 13.0332C67.6214 12.8366 67.503 12.6594 67.3489 12.5157" fill="#F5F5F5"/>
<path d="M88.0027 13.9276C87.2074 13.0295 85.8738 12.7606 84.0019 12.7606C83.8613 12.7606 83.5169 12.7606 82.9011 12.8182C82.2852 12.8759 81.8827 12.8759 81.616 12.8759L82.4113 8.66394H76.5144L74.0121 20.7954H81.7372C84.0164 20.7954 86.4363 20.1951 87.5565 18.9896C88.3637 18.1636 88.8097 17.0558 88.798 15.9063C88.8087 15.5402 88.7437 15.1758 88.6069 14.8355C88.4701 14.4953 88.2645 14.1863 88.0027 13.9276ZM82.3288 17.448C81.9231 17.7853 81.4029 17.957 80.874 17.9283H80.3891L80.9516 15.1955H81.4365C81.7406 15.1814 82.044 15.2356 82.324 15.354C82.5021 15.4404 82.6492 15.5788 82.7455 15.7506C82.8417 15.9223 82.8825 16.1192 82.8623 16.3146C82.864 16.532 82.8181 16.7473 82.7276 16.9454C82.6372 17.1436 82.5045 17.32 82.3385 17.4624" fill="#F5F5F5"/>
<path d="M88.4537 8.66882L87.6923 12.3477C88.379 12.5522 88.9951 12.9412 89.4721 13.4715C90.0347 14.1212 90.3337 14.9547 90.311 15.8104C90.3286 17.0563 89.8595 18.2607 89.0017 19.1722C88.2647 19.9705 87.3095 20.5394 86.252 20.8099H91.8434L94.3457 8.68323L88.4537 8.66882Z" fill="#F5F5F5"/>
<path d="M17.5016 11.2045C17.2977 10.3118 16.8459 9.4934 16.1971 8.84162C15.043 7.57852 14.1652 7.1751 14.6162 6.92056C15.2366 6.55314 15.8971 6.25668 16.5851 6.03687C17.6956 5.65746 17.9672 5.62865 18.3794 6.19536C18.7916 6.76207 20.1155 8.72155 19.9457 9.87899C19.776 11.0364 19.2426 10.8779 19.2426 10.8779L17.5016 11.2045Z" fill="#F5F5F5"/>
<path d="M20.7313 10.8588C21.222 10.0823 21.4856 9.18618 21.4927 8.27017C21.58 6.57003 21.2454 5.67194 21.7497 5.80641C22.4472 5.98146 23.1224 6.23442 23.7622 6.56043C24.8145 7.06471 25.0328 7.2376 24.9164 7.92918C24.8 8.62076 24.3393 10.9308 23.3985 11.6272C22.4577 12.3236 22.1813 11.8433 22.1813 11.8433L20.7313 10.8588Z" fill="#F5F5F5"/>
<path d="M23.2773 12.8711C24.1783 12.6683 25.0045 12.2209 25.6632 11.5792C26.9386 10.4362 27.346 9.56691 27.603 10.0136C27.9748 10.6299 28.2758 11.2855 28.5001 11.9682C28.8832 13.0632 28.9123 13.337 28.3352 13.7452C27.7582 14.1534 25.7844 15.4646 24.6206 15.2965C23.4567 15.1284 23.6119 14.5953 23.6119 14.5953L23.2773 12.8711Z" fill="#F5F5F5"/>
<path d="M23.6119 16.0697C24.3954 16.5514 25.2988 16.8075 26.2209 16.8093C27.9376 16.8958 28.8493 16.5644 28.7135 17.0639C28.5362 17.7591 28.2808 18.4324 27.9521 19.0714C27.4381 20.1135 27.2684 20.3297 26.5701 20.2144C25.8717 20.0991 23.5392 19.6621 22.8311 18.7304C22.1231 17.7987 22.6178 17.5297 22.6178 17.5297L23.6119 16.0697Z" fill="#F5F5F5"/>
<path d="M21.5751 18.5767C21.779 19.4693 22.2309 20.2878 22.8796 20.9396C24.0338 22.2027 24.9115 22.6109 24.4605 22.8606C23.8401 23.228 23.1796 23.5245 22.4917 23.7443C21.3812 24.1285 21.1047 24.1573 20.6974 23.5858C20.29 23.0143 18.9613 21.0596 19.1262 19.907C19.291 18.7544 19.8342 18.9032 19.8342 18.9032L21.5751 18.5767Z" fill="#F5F5F5"/>
<path d="M18.3454 18.9272C17.8528 19.7011 17.589 20.5962 17.584 21.511C17.4968 23.2112 17.8314 24.1141 17.327 23.9796C16.6239 23.8055 15.9436 23.5509 15.3 23.2208C14.2428 22.7165 14.0294 22.5436 14.1458 21.852C14.2622 21.1604 14.7229 18.8552 15.6637 18.154C16.6045 17.4528 16.8809 17.9427 16.8809 17.9427L18.3454 18.9272Z" fill="#F5F5F5"/>
<path d="M15.814 16.9101C14.913 17.113 14.0868 17.5603 13.4281 18.202C12.1527 19.345 11.7453 20.2143 11.4883 19.7677C11.1144 19.1524 10.8134 18.4965 10.5912 17.813C10.2081 16.718 10.179 16.4442 10.7512 16.036C11.3234 15.6278 13.3068 14.3215 14.4707 14.4847C15.6346 14.648 15.4794 15.1859 15.4794 15.1859L15.814 16.9101Z" fill="#F5F5F5"/>
<path d="M15.4648 13.7116C14.6819 13.2282 13.7785 12.9704 12.8558 12.9671C11.1343 12.8855 10.2275 13.2121 10.3632 12.7174C10.5389 12.0217 10.7944 11.3481 11.1246 10.7099C11.6095 9.66292 11.8084 9.4516 12.5067 9.56687C13.205 9.68213 15.5182 10.124 16.2456 11.0461C16.973 11.9682 16.459 12.2467 16.459 12.2467L15.4648 13.7116Z" fill="#F5F5F5"/>
<path d="M17.0361 9.33152C16.5716 8.72222 16.0644 8.14607 15.5182 7.60737C15.0332 7.19434 14.9508 7.1271 15.0866 7.05506C15.2224 6.98302 15.6685 7.38164 16.1244 7.90993C16.5802 8.43822 17.2009 9.26428 17.2009 9.26428L17.0361 9.33152Z" fill="#0D0802"/>
<path d="M21.74 9.20673C21.8471 8.45095 21.9006 7.68866 21.9 6.92548C21.8224 6.28192 21.8224 6.20028 21.9873 6.2435C22.1522 6.28672 22.1668 6.88225 22.1134 7.57864C22.0601 8.27502 21.9097 9.28838 21.9097 9.28838L21.74 9.20673Z" fill="#0D0802"/>
<path d="M25.154 12.4148C25.77 11.9558 26.3519 11.4534 26.895 10.9116C27.312 10.4313 27.3799 10.3545 27.4526 10.4841C27.5254 10.6138 27.1229 11.046 26.5894 11.5263C26.056 12.0066 25.2171 12.5829 25.2171 12.5829L25.154 12.4148Z" fill="#0D0802"/>
<path d="M25.2752 17.0734C26.0384 17.1794 26.8081 17.2324 27.5787 17.2319C28.2286 17.1694 28.311 17.1646 28.277 17.3183C28.2431 17.472 27.6321 17.496 26.9338 17.4432C26.2354 17.3903 25.2171 17.2367 25.2171 17.2367L25.2752 17.0734Z" fill="#0D0802"/>
<path d="M22.0407 20.4545C22.5036 21.0636 23.0092 21.6397 23.5537 22.1786C24.0386 22.5916 24.1162 22.6589 23.9853 22.7309C23.8544 22.803 23.4034 22.3995 22.9475 21.8761C22.4917 21.3526 21.8709 20.5217 21.8709 20.5217L22.0407 20.4545Z" fill="#0D0802"/>
<path d="M17.3367 20.5746C17.2296 21.3304 17.1761 22.0927 17.1767 22.8559C17.2349 23.4994 17.2397 23.5811 17.0894 23.5474C16.9391 23.5138 16.91 22.9087 16.9633 22.2171C17.0167 21.5255 17.167 20.5026 17.167 20.5026L17.3367 20.5746Z" fill="#0D0802"/>
<path d="M13.9227 17.3664C13.3079 17.8269 12.7262 18.3292 12.1818 18.8696C11.7647 19.3499 11.6968 19.4267 11.6241 19.297C11.5514 19.1674 11.9539 18.7303 12.4873 18.2501C13.0207 17.7698 13.8548 17.1791 13.8548 17.1791L13.9227 17.3664Z" fill="#0D0802"/>
<path d="M13.7966 12.7126C13.0354 12.6041 12.2671 12.5511 11.498 12.5541C10.8482 12.6118 10.7657 12.6166 10.7948 12.4629C10.8239 12.3092 11.4447 12.29 12.143 12.3428C12.8413 12.3957 13.8694 12.5445 13.8694 12.5445L13.7966 12.7126Z" fill="#0D0802"/>
<path d="M23.2773 20.6514C22.1256 21.3846 20.7801 21.763 19.4111 21.7387C18.0422 21.7144 16.7113 21.2885 15.5868 20.5149C14.4624 19.7412 13.595 18.6546 13.0943 17.3926C12.5936 16.1305 12.4822 14.7497 12.7742 13.425C13.0662 12.1002 13.7484 10.891 14.7346 9.95032C15.7207 9.00967 16.9664 8.37987 18.3141 8.14061C19.6618 7.90136 21.0509 8.06341 22.3056 8.60625C23.5602 9.14909 24.6241 10.0483 25.3625 11.1902C26.3513 12.7191 26.6871 14.5741 26.2961 16.348C25.9052 18.1218 24.8194 19.6696 23.2773 20.6514Z" fill="#F5F5F5"/>
<path d="M23.0057 20.2624C21.9332 20.9449 20.6804 21.297 19.4059 21.2743C18.1313 21.2516 16.8921 20.855 15.8451 20.1348C14.7981 19.4145 13.9903 18.403 13.5238 17.228C13.0574 16.053 12.9533 14.7675 13.2246 13.5339C13.496 12.3003 14.1307 11.1742 15.0484 10.2979C15.9661 9.42156 17.1256 8.83446 18.3802 8.61082C19.6349 8.38719 20.9283 8.53707 22.0969 9.04151C23.2655 9.54595 24.2569 10.3823 24.9455 11.4447C25.8673 12.8693 26.1807 14.5978 25.817 16.2509C25.4534 17.904 24.4423 19.3467 23.0057 20.2624Z" fill="#1D1D1B"/>
<path d="M30.7309 10.0856L29.9695 13.5002C30.0804 14.296 30.0983 15.1018 30.0228 15.9016L31.3807 9.7974C31.414 9.63913 31.4351 9.47858 31.4437 9.31714C31.2813 9.61756 31.0443 9.87209 30.7551 10.0567L30.7309 10.0856Z" fill="#F5F5F5"/>
<path d="M27.6757 23.8212L27.7533 23.946C27.9066 24.1851 28.0074 24.4535 28.0491 24.7337C28.0491 24.6616 28.0879 24.5896 28.1025 24.5175L29.4603 18.4086C29.1913 19.1639 28.8349 19.8859 28.3983 20.5602L27.6757 23.8212Z" fill="#F5F5F5"/>
<path d="M24.3054 25.9343L21.0126 25.2139C20.2092 25.3254 19.3954 25.3431 18.5879 25.2667L24.7612 26.6114C24.833 26.6289 24.9059 26.6417 24.9794 26.6499C24.7404 26.4972 24.5371 26.2958 24.3829 26.0591L24.3054 25.9343Z" fill="#F5F5F5"/>
<path d="M28.3789 6.86303L28.6117 6.72375C28.7984 6.60349 29.0053 6.51728 29.2227 6.46921L23.0785 5.12927C23.8408 5.39669 24.5697 5.74957 25.251 6.18105L28.3789 6.86303Z" fill="#F5F5F5"/>
<path d="M11.4544 6.04178L11.3768 5.91691C11.2207 5.6792 11.1197 5.41022 11.081 5.12927L11.0228 5.34539L9.66493 11.4544C9.93697 10.7018 10.2932 9.9817 10.727 9.30758L11.4544 6.04178Z" fill="#F5F5F5"/>
<path d="M8.47196 19.4651L9.16058 16.3674C9.04764 15.5718 9.02974 14.7658 9.10724 13.9661L7.75909 20.051C7.8948 19.8781 8.0587 19.7287 8.24404 19.6092L8.47196 19.4651Z" fill="#F5F5F5"/>
<path d="M14.8199 3.90932L18.1175 4.62972C18.9208 4.51787 19.7347 4.50014 20.5422 4.57689L14.364 3.23215C14.2922 3.2147 14.2193 3.20186 14.1458 3.19373C14.3848 3.34635 14.5882 3.54775 14.7423 3.78445L14.8199 3.90932Z" fill="#F5F5F5"/>
<path d="M10.4214 22.9279C10.1316 23.114 9.79672 23.2201 9.45155 23.2352C9.59775 23.2939 9.7486 23.3405 9.90255 23.3745L16.0516 24.7337C15.2905 24.4672 14.563 24.1142 13.8839 23.6819L10.4214 22.9279Z" fill="#F5F5F5"/>
<path d="M28.0491 24.7337C28.0074 24.4535 27.9066 24.1851 27.7533 23.9461L27.6757 23.8212L26.8028 22.4716C28.0005 21.3444 28.9113 19.952 29.4603 18.4086C29.7512 17.5941 29.9401 16.7473 30.0228 15.8872C30.1803 14.2193 29.9274 12.5385 29.2857 10.9885L30.7406 10.0712H30.7648C31.054 9.88654 31.291 9.63201 31.4534 9.33159C31.6326 8.99525 31.7101 8.61491 31.6767 8.23608C31.6433 7.85725 31.5003 7.49598 31.265 7.19551C31.0296 6.89504 30.7118 6.6681 30.3496 6.54185C29.9874 6.4156 29.5962 6.39538 29.2227 6.48362C29.0063 6.52724 28.7994 6.60855 28.6117 6.72375L28.3886 6.86303L27.0938 7.68428C25.9724 6.5394 24.5978 5.66805 23.0784 5.13888C22.2564 4.85014 21.4011 4.66459 20.5325 4.58657C19.725 4.50982 18.9111 4.52756 18.1078 4.6394C17.2771 4.7527 16.4631 4.96391 15.6831 5.26855L14.8102 3.919L14.7326 3.79414C14.4868 3.41343 14.1168 3.12751 13.6842 2.98391C13.2516 2.84032 12.7824 2.8477 12.3546 3.00482C11.9267 3.16195 11.5661 3.45935 11.3327 3.84759C11.0992 4.23583 11.007 4.69151 11.0713 5.13888C11.11 5.41983 11.211 5.68881 11.3671 5.92651L11.4447 6.05138L12.3176 7.40093C11.7095 7.97656 11.1723 8.62139 10.7172 9.32199C10.2835 9.99611 9.92726 10.7162 9.65522 11.4688C9.36545 12.2834 9.17815 13.1302 9.09753 13.9902C9.02004 14.7899 9.03794 15.5959 9.15088 16.3915C9.25976 17.1733 9.45825 17.9403 9.74251 18.6775L8.46226 19.4892L8.23918 19.6333C7.86474 19.8669 7.57944 20.2172 7.42826 20.6291C7.27709 21.041 7.26864 21.4911 7.40424 21.9083C7.53984 22.3255 7.81178 22.6861 8.1772 22.9333C8.54261 23.1805 8.98072 23.3003 9.42245 23.2737C9.76761 23.2586 10.1024 23.1525 10.3923 22.9663L11.8472 22.049C12.9989 23.2732 14.4311 24.2051 16.023 24.766C17.6148 25.3269 19.3195 25.5003 20.9932 25.2716C21.8244 25.1609 22.6387 24.9496 23.4179 24.6424L24.3054 25.9343L24.3878 26.0592C24.6336 26.4399 25.0035 26.7258 25.4362 26.8694C25.8688 27.013 26.338 27.0057 26.7658 26.8485C27.1936 26.6914 27.5542 26.394 27.7877 26.0058C28.0212 25.6175 28.1134 25.1618 28.0491 24.7145V24.7337ZM23.1657 24.1862C21.9057 24.6695 20.5589 24.8918 19.2086 24.8393C16.5809 24.75 14.0946 23.6387 12.2885 21.7464C11.8549 21.292 11.4653 20.7984 11.1246 20.272C10.7369 19.6774 10.4119 19.045 10.1547 18.3846C9.35814 16.2602 9.32021 13.9297 10.0472 11.781C10.7743 9.63231 12.2224 7.795 14.1506 6.57487C15.8629 5.49196 17.8668 4.94935 19.8972 5.01881C21.109 5.06641 22.3027 5.32659 23.4228 5.78724C25.3075 6.56563 26.9055 7.89839 28.0006 9.60534C28.3416 10.1305 28.6306 10.687 28.8638 11.2671C29.3828 12.543 29.6272 13.9121 29.5815 15.2869C29.5359 16.4858 29.2731 17.6668 28.8056 18.7736C28.2838 20.0081 27.5132 21.1243 26.5409 22.0538C26.0599 22.5179 25.5318 22.9315 24.9649 23.2881C24.4008 23.647 23.8012 23.9479 23.1754 24.1862" fill="#F5F5F5"/>
<path d="M30.4011 9.6053C30.1593 9.76214 29.8758 9.8441 29.5868 9.84072C29.2978 9.83734 29.0163 9.74877 28.7783 9.5863C28.5403 9.42384 28.3566 9.19486 28.2506 8.92856C28.1445 8.66225 28.121 8.37071 28.183 8.09111C28.245 7.81151 28.3896 7.55653 28.5985 7.35869C28.8074 7.16085 29.0711 7.02913 29.3559 6.98033C29.6408 6.93152 29.9338 6.96784 30.1977 7.08466C30.4616 7.20147 30.6843 7.39349 30.8376 7.63621C31.0393 7.95575 31.1066 8.34085 31.025 8.70894C30.9434 9.07703 30.7194 9.39881 30.4011 9.6053Z" fill="#0D0802"/>
<path d="M8.59805 20.0414C8.83985 19.8846 9.12334 19.8026 9.41237 19.806C9.70139 19.8094 9.98285 19.898 10.2208 20.0604C10.4588 20.2229 10.6426 20.4519 10.7486 20.7182C10.8546 20.9845 10.8781 21.276 10.8162 21.5556C10.7542 21.8352 10.6095 22.0902 10.4006 22.288C10.1917 22.4859 9.92803 22.6176 9.64322 22.6664C9.35841 22.7152 9.06537 22.6789 8.80148 22.5621C8.5376 22.4453 8.31483 22.2532 8.1616 22.0105C7.95987 21.691 7.89259 21.3059 7.97418 20.9378C8.05576 20.5697 8.27973 20.2479 8.59805 20.0414Z" fill="#0D0802"/>
<path d="M24.8242 25.7278C24.6659 25.4883 24.5831 25.2076 24.5865 24.9213C24.59 24.6351 24.6794 24.3563 24.8434 24.1207C25.0075 23.885 25.2387 23.703 25.5076 23.598C25.7765 23.493 26.0709 23.4697 26.3532 23.5311C26.6355 23.5924 26.893 23.7357 27.0927 23.9426C27.2925 24.1495 27.4255 24.4106 27.4748 24.6927C27.5241 24.9748 27.4874 25.265 27.3694 25.5263C27.2515 25.7877 27.0576 26.0083 26.8125 26.16C26.4899 26.3598 26.101 26.4264 25.7293 26.3456C25.3577 26.2648 25.0327 26.043 24.8242 25.7278Z" fill="#0D0802"/>
<path d="M14.301 4.13508C14.4599 4.3745 14.5432 4.65542 14.5401 4.94195C14.537 5.22847 14.4478 5.50757 14.2837 5.74359C14.1197 5.97962 13.8883 6.16184 13.6191 6.26696C13.35 6.37209 13.0553 6.39535 12.7727 6.33377C12.4901 6.27219 12.2325 6.12857 12.0328 5.92126C11.8331 5.71395 11.7003 5.45237 11.6514 5.16995C11.6026 4.88753 11.6399 4.59709 11.7585 4.33576C11.8772 4.07443 12.0718 3.85407 12.3176 3.70284C12.6398 3.50455 13.0275 3.43876 13.398 3.51951C13.7685 3.60025 14.0926 3.82114 14.301 4.13508Z" fill="#0D0802"/>
<path d="M30.212 9.32671C30.0323 9.43732 29.8236 9.49279 29.6121 9.48613C29.4006 9.47946 29.1959 9.41096 29.0237 9.28926C28.8515 9.16755 28.7195 8.99809 28.6443 8.80222C28.5692 8.60635 28.5543 8.39284 28.6015 8.18859C28.6486 7.98434 28.7558 7.79849 28.9095 7.65445C29.0631 7.51042 29.2564 7.41464 29.4649 7.37919C29.6734 7.34374 29.8878 7.37021 30.0812 7.45526C30.2746 7.5403 30.4382 7.68012 30.5514 7.8571C30.6285 7.97443 30.6812 8.10576 30.7066 8.24346C30.732 8.38115 30.7295 8.52247 30.6993 8.6592C30.6691 8.79593 30.6117 8.92535 30.5305 9.03994C30.4494 9.15453 30.346 9.25201 30.2265 9.32671" fill="#F5F5F5"/>
<path d="M30.1247 9.0386L30.1829 9.08662C30.2325 9.04787 30.2765 9.00263 30.3138 8.95215C30.3526 8.9 30.3851 8.8436 30.4108 8.78406L30.3429 8.74563C30.2215 8.65576 30.141 8.52183 30.1192 8.37326C30.0974 8.22469 30.136 8.07361 30.2265 7.9532L30.2799 7.89076C30.239 7.84157 30.1917 7.79797 30.1392 7.76109C30.0871 7.72452 30.032 7.69238 29.9743 7.66504C29.9627 7.68916 29.948 7.71175 29.9307 7.73228C29.84 7.85254 29.7047 7.93222 29.5547 7.95383C29.4047 7.97544 29.2521 7.93721 29.1305 7.84754L29.0724 7.79951C29.0228 7.83827 28.9787 7.8835 28.9414 7.93399C28.9027 7.98613 28.8701 8.04254 28.8444 8.10208L28.9123 8.1405C29.0338 8.23038 29.1142 8.3643 29.136 8.51288C29.1579 8.66145 29.1193 8.81253 29.0287 8.93294L28.9754 8.99537C29.0113 9.04246 29.052 9.0859 29.0966 9.12504C29.1487 9.16162 29.2039 9.19375 29.2615 9.2211L29.3051 9.15386C29.3959 9.0336 29.5311 8.95392 29.6811 8.93231C29.8311 8.9107 29.9837 8.94892 30.1053 9.0386" fill="#0D0802"/>
<path d="M13.6706 5.79677C13.4913 5.91046 13.2821 5.96899 13.0693 5.96494C12.8565 5.9609 12.6496 5.89448 12.4749 5.77407C12.3002 5.65366 12.1655 5.48466 12.0877 5.28844C12.01 5.09221 11.9927 4.87756 12.0381 4.67162C12.0835 4.46567 12.1895 4.27767 12.3427 4.13137C12.496 3.98507 12.6895 3.88704 12.899 3.84966C13.1085 3.81228 13.3245 3.83724 13.5196 3.92137C13.7148 4.00551 13.8804 4.14505 13.9955 4.32236C14.147 4.55969 14.1979 4.84664 14.137 5.1209C14.0762 5.39516 13.9086 5.63457 13.6706 5.78717" fill="#F5F5F5"/>
<path d="M13.5784 5.50869C13.6016 5.52365 13.6227 5.5414 13.6415 5.56152C13.6888 5.5186 13.7325 5.47203 13.7724 5.42224C13.8094 5.36897 13.8418 5.31274 13.8694 5.25415L13.8015 5.21573C13.6801 5.12585 13.5996 4.99193 13.5778 4.84335C13.556 4.69478 13.5946 4.5437 13.6851 4.42329C13.7002 4.40038 13.7181 4.37941 13.7385 4.36086C13.6539 4.26293 13.5477 4.18568 13.4281 4.13513C13.4181 4.15907 13.405 4.18167 13.3893 4.20237C13.2997 4.31795 13.1686 4.39491 13.0232 4.41727C12.8778 4.43963 12.7293 4.40567 12.6085 4.32244L12.5455 4.27441C12.497 4.31439 12.4531 4.35948 12.4146 4.40888C12.3758 4.46103 12.3432 4.51743 12.3176 4.57698L12.3855 4.6154C12.5069 4.70527 12.5874 4.8392 12.6092 4.98777C12.631 5.13634 12.5924 5.28742 12.5018 5.40783C12.4869 5.42952 12.4707 5.45037 12.4534 5.47027C12.4925 5.51938 12.5382 5.563 12.5891 5.59994C12.6429 5.63656 12.6997 5.66869 12.7589 5.69599C12.7689 5.67205 12.7819 5.64946 12.7977 5.62876C12.8873 5.51317 13.0184 5.43621 13.1638 5.41385C13.3091 5.39149 13.4576 5.42546 13.5784 5.50869Z" fill="#0D0802"/>
<path d="M9.93164 22.1738C9.75312 22.2872 9.54466 22.3455 9.33266 22.3414C9.12065 22.3374 8.91462 22.2712 8.74064 22.1511C8.56665 22.0311 8.43254 21.8626 8.35526 21.6671C8.27798 21.4715 8.26102 21.2576 8.30651 21.0525C8.35201 20.8474 8.45792 20.6603 8.61084 20.5148C8.76377 20.3693 8.95683 20.2721 9.1656 20.2353C9.37436 20.1985 9.58946 20.2239 9.78366 20.3082C9.97785 20.3925 10.1424 20.532 10.2565 20.709C10.4081 20.9464 10.4589 21.2333 10.3981 21.5076C10.3373 21.7818 10.1696 22.0212 9.93164 22.1738Z" fill="#F5F5F5"/>
<path d="M9.8395 21.8857C9.86264 21.9007 9.88381 21.9184 9.90254 21.9385C9.95107 21.8969 9.99497 21.8502 10.0335 21.7993C10.0694 21.747 10.1018 21.6925 10.1305 21.636L10.0626 21.612C9.94114 21.5221 9.86068 21.3882 9.83886 21.2396C9.81704 21.091 9.85564 20.9399 9.94619 20.8195C9.9613 20.7966 9.97922 20.7756 9.99953 20.7571C9.95619 20.7103 9.90917 20.6669 9.8589 20.6274C9.80511 20.5908 9.74833 20.5587 9.68917 20.5314C9.67915 20.5553 9.66611 20.5779 9.65037 20.5986C9.60584 20.6587 9.5497 20.7094 9.48519 20.7478C9.42069 20.7861 9.34913 20.8114 9.27466 20.8222C9.2002 20.8329 9.12432 20.8288 9.05146 20.8102C8.97859 20.7917 8.91018 20.7589 8.85022 20.7139L8.78717 20.6658C8.73993 20.7071 8.69614 20.7521 8.65624 20.8003C8.61926 20.8536 8.58682 20.9098 8.55925 20.9684L8.62714 21.0068C8.74082 21.0983 8.81475 21.2295 8.83369 21.3733C8.85264 21.5172 8.81516 21.6628 8.72898 21.7801C8.714 21.8017 8.69781 21.8226 8.68049 21.8425C8.72086 21.8905 8.76639 21.934 8.81627 21.9722C8.86892 22.0106 8.92588 22.0428 8.986 22.0682C8.99602 22.0443 9.00905 22.0217 9.0248 22.001C9.11555 21.8807 9.25078 21.801 9.4008 21.7794C9.55082 21.7578 9.70337 21.796 9.82495 21.8857" fill="#0D0802"/>
<path d="M26.6137 25.8574C26.4348 25.9695 26.2263 26.0265 26.0147 26.0214C25.8031 26.0162 25.5977 25.9491 25.4245 25.8285C25.2514 25.7079 25.1181 25.5393 25.0416 25.3438C24.9652 25.1483 24.9489 24.9347 24.9948 24.7301C25.0407 24.5254 25.1468 24.3388 25.2997 24.1938C25.4526 24.0488 25.6454 23.9518 25.8539 23.9152C26.0623 23.8786 26.277 23.904 26.4709 23.9881C26.6649 24.0722 26.8293 24.2113 26.9435 24.3878C27.0197 24.5056 27.0716 24.6372 27.0962 24.775C27.1209 24.9127 27.1178 25.054 27.0872 25.1906C27.0565 25.3271 26.9989 25.4564 26.9177 25.5708C26.8364 25.6853 26.7331 25.7827 26.6137 25.8574Z" fill="#F5F5F5"/>
<path d="M26.5264 25.5646L26.5846 25.6174C26.6346 25.5758 26.6801 25.5291 26.7204 25.4781C26.7576 25.4275 26.7885 25.3727 26.8125 25.3148C26.7904 25.3021 26.7693 25.2876 26.7495 25.2716C26.6304 25.1835 26.551 25.0526 26.5283 24.9071C26.5056 24.7616 26.5415 24.6131 26.6282 24.4936L26.6816 24.4359C26.6407 24.3867 26.5934 24.3431 26.541 24.3063C26.49 24.2679 26.4347 24.2357 26.3761 24.2102C26.3651 24.2347 26.3503 24.2574 26.3324 24.2774C26.2417 24.3977 26.1064 24.4774 25.9564 24.499C25.8064 24.5206 25.6539 24.4824 25.5323 24.3927L25.4741 24.3399C25.4244 24.3804 25.3804 24.4272 25.3431 24.4792C25.3044 24.5296 25.2719 24.5844 25.2462 24.6424L25.314 24.6857C25.4287 24.775 25.5045 24.9042 25.5262 25.047C25.5478 25.1898 25.5135 25.3354 25.4304 25.4541L25.3771 25.5117C25.4192 25.5598 25.4663 25.6033 25.5177 25.6414C25.5675 25.6814 25.6231 25.7138 25.6826 25.7374L25.7262 25.6702C25.8178 25.551 25.9529 25.4721 26.1025 25.4506C26.2522 25.429 26.4044 25.4665 26.5264 25.5549" fill="#0D0802"/>
<path d="M15.1642 10.8396L17.2252 10.8924C18.229 10.9212 18.8789 11.1037 19.165 11.4495C19.3465 11.6809 19.456 11.9596 19.4802 12.2516C19.5007 12.5442 19.5007 12.8379 19.4802 13.1305V13.8076C19.4876 14.1323 19.445 14.4562 19.3541 14.7682C19.1456 15.3301 18.5685 15.599 17.618 15.575H17.0652L16.9827 18.7159L14.9363 18.6631L15.1642 10.8396ZM17.1719 12.2228L17.1185 14.1967H17.2737C17.3574 14.2101 17.4433 14.1991 17.5208 14.165C17.5983 14.1309 17.6641 14.0751 17.7101 14.0045C17.7738 13.8525 17.8036 13.6887 17.7974 13.5243V12.8855C17.8281 12.7057 17.7863 12.5212 17.681 12.3716C17.5296 12.2631 17.3432 12.2136 17.1573 12.2324" fill="#F5F5F5"/>
<path d="M24.6885 14.48L22.642 14.408L22.6808 13.0536C22.6808 12.7175 22.6808 12.535 22.6808 12.4965C22.642 12.2756 22.5305 12.1651 22.3413 12.1603C22.1522 12.1555 22.0067 12.266 21.9534 12.5061C21.9534 12.5542 21.9534 12.7559 21.9243 13.0969L21.8225 16.7373C21.8225 17.0542 21.8225 17.2464 21.8225 17.3136C21.8613 17.5441 21.9776 17.6594 22.1716 17.6642C22.3656 17.669 22.4917 17.5441 22.5402 17.2896C22.5402 17.2367 22.5402 17.0302 22.5693 16.6844V15.7239L24.6157 15.7767V16.0793C24.6206 16.5632 24.5734 17.0461 24.4751 17.5201C24.4125 17.76 24.3017 17.9849 24.1492 18.1813C23.9967 18.3777 23.8057 18.5416 23.5876 18.6631C23.1427 18.9032 22.6386 19.0147 22.1328 18.9849C20.8962 18.9561 20.1591 18.5046 19.9069 17.7074C19.773 17.1462 19.7256 16.5681 19.7663 15.9929L19.8827 13.7116C19.885 13.3506 19.906 12.9899 19.9457 12.631C19.9884 12.2739 20.1256 11.9342 20.3434 11.6465C20.5865 11.3628 20.8964 11.1426 21.2456 11.0052C21.5948 10.8679 21.9728 10.8176 22.3462 10.8588C22.8064 10.8646 23.2598 10.9695 23.6749 11.1662C23.8851 11.2543 24.0742 11.3854 24.2296 11.551C24.3851 11.7165 24.5034 11.9127 24.5769 12.1267C24.7122 12.6535 24.7613 13.1983 24.7224 13.7404L24.6885 14.48Z" fill="#F5F5F5"/>
</svg>
