<svg width="12" height="17" viewBox="0 0 12 17" fill="none" xmlns="http://www.w3.org/2000/svg">
<path d="M5.72829 15.5337C6.69636 14.8275 7.90028 14.2906 9.22577 13.9631C8.96247 13.6156 8.72325 13.2281 8.51709 12.8106C7.98487 11.7319 7.70308 10.5437 7.70308 9.375C7.70308 7.69437 7.70308 6.1075 8.23866 4.80937C8.75854 3.54937 9.69412 2.76875 11.0263 2.47562C10.73 0.981875 9.94174 0 7.84314 0C4.48179 0 4.48179 2.51812 4.48179 5.625C4.48179 7.56 5.48852 9.49437 6.72269 10.27V11.3006C2.92213 11.6475 0 13.7306 0 16.2494H4.88459C5.13894 15.9975 5.42017 15.7575 5.72829 15.5331V15.5337Z" fill="#F5F5F5"/>
</svg>
